<?xml version="1.0" encoding="utf-8"?>
<!-- Generator: Adobe Illustrator 27.5.0, SVG Export Plug-In . SVG Version: 6.00 Build 0)  -->
<svg version="1.1" xmlns="http://www.w3.org/2000/svg" xmlns:xlink="http://www.w3.org/1999/xlink" x="0px" y="0px"
	 viewBox="0 0 3710 3710" style="enable-background:new 0 0 3710 3710;" xml:space="preserve">
<g id="Background">
	<g>
		<g>
			<rect style="fill:#FFFFFF;" width="3710" height="3710"/>
		</g>
	</g>
</g>
<g id="Illustration">
	<g>
		<path style="fill:#F4F7FA;" d="M3214.149,1652.055C3138.237,1155.18,2827.002,544.734,2212.121,480.85
			c0,0-466.846-56.785-927.054,29.278c-273.134,51.078-512.632,203.127-664.176,421.66
			c-151.546,218.533-202.167,485.003-140.732,739.05c39.902,165.006,66.865,335.78,59.465,505.333
			c-12.879,295.091-5.469,570.538,280.91,746.522c255.704,157.134,577.511,295.721,884.519,319.995
			c208.641,16.496,442.618-10.198,643.709-64.518C3373.562,2901.339,3290.06,2148.929,3214.149,1652.055z"/>
		<g>
			<g>
				<defs>
					<path id="SVGID_1_" d="M2069.182,2811.389c-63.317-100.653-10.303-273.214,57.993-375.4
						c79.739-119.305,148.308-94.802,203.102-192.414c102.019-181.739-93.84-341.207-5.493-532.642
						c72.223-156.496,230.524-109.306,302.619-286.252c52.024-127.682-5.397-213.624,76.51-309.837
						c7.002-8.225,83.787-95.845,180.75-83.433c97.865,12.529,159.048,119.635,180.297,194.24
						c39.278,137.905-52.03,185.33-65.459,365.895c-18.282,245.833,140.145,303.443,89.269,481.673
						c-42.011,147.178-159.731,141.841-203.071,305.953c-40.244,152.393,46.64,212.372,9.741,312.302
						C2810.555,2921.364,2198.332,3016.692,2069.182,2811.389z"/>
				</defs>
				
					<linearGradient id="SVGID_00000071548487272481460390000010666297947071938233_" gradientUnits="userSpaceOnUse" x1="2775.5127" y1="1813.0536" x2="3284.2556" y2="618.8441">
					<stop  offset="0" style="stop-color:#FF9085"/>
					<stop  offset="1" style="stop-color:#FB6FBB"/>
				</linearGradient>
				
					<use xlink:href="#SVGID_1_"  style="overflow:visible;fill:url(#SVGID_00000071548487272481460390000010666297947071938233_);"/>
				<clipPath id="SVGID_00000160875523902613462190000013696414356902734489_">
					<use xlink:href="#SVGID_1_"  style="overflow:visible;"/>
				</clipPath>
				<g style="opacity:0.9;clip-path:url(#SVGID_00000160875523902613462190000013696414356902734489_);">
					<g style="opacity:0.7;">
						<path style="fill:#FFFFFF;" d="M2155.579,2970.514c-1.076,0-2.018-0.796-2.167-1.895c-0.165-1.2,0.674-2.307,1.872-2.472
							c103.952-14.294,200.345-49.705,286.507-105.248c81.602-52.607,165.979-107.001,201.153-203.364
							c26.585-72.829,9.052-125.366-13.145-191.877c-21.65-64.865-48.591-145.591-39.003-270.555
							c5.476-71.353,12.288-160.155,71.324-245.859c34.404-49.937,68.602-71.925,98.779-91.323
							c31.502-20.254,56.387-36.252,69.904-77.376c22.082-67.181,4.43-123.848-16.013-189.459
							c-12.64-40.579-25.712-82.538-31.739-132.67c-16.955-141.123,45.091-295.348,184.424-458.396
							c0.789-0.923,2.175-1.024,3.09-0.243c0.923,0.787,1.03,2.171,0.241,3.092c-138.498,162.077-200.203,315.169-183.397,455.022
							c5.973,49.736,18.988,91.5,31.571,131.889c20.666,66.333,38.513,123.62,15.99,192.135
							c-14.003,42.602-40.738,59.791-71.699,79.695c-29.825,19.176-63.635,40.91-97.534,90.123
							c-58.37,84.73-65.133,172.877-70.566,243.707c-9.519,124.079,17.265,204.339,38.789,268.828
							c22.469,67.325,40.217,120.503,13.107,194.772c-35.679,97.745-120.685,152.547-202.891,205.543
							c-86.709,55.895-183.7,91.528-288.291,105.91C2155.781,2970.507,2155.678,2970.514,2155.579,2970.514z"/>
					</g>
					<g style="opacity:0.7;">
						<path style="fill:#FFFFFF;" d="M2639.042,1994.753c-0.816,0-1.601-0.459-1.976-1.246
							c-90.159-188.023-107.995-335.216-107.084-425.585c0.992-98.095,23.714-152.478,23.943-153.016
							c0.479-1.116,1.777-1.625,2.875-1.158c1.114,0.475,1.635,1.763,1.16,2.878c-0.226,0.532-22.657,54.321-23.595,151.643
							c-0.869,89.851,16.932,236.233,106.651,423.343c0.525,1.091,0.065,2.401-1.026,2.925
							C2639.685,1994.682,2639.359,1994.753,2639.042,1994.753z"/>
					</g>
					<g style="opacity:0.7;">
						<path style="fill:#FFFFFF;" d="M2592.951,2298.891c-0.946,0-1.815-0.615-2.102-1.566c-0.345-1.16,0.314-2.382,1.474-2.728
							c239.853-71.73,354.542-215.255,408.516-323.026c58.466-116.743,60.273-217.714,60.285-218.721
							c0.015-1.202,0.996-2.167,2.194-2.167c0.008,0,0.015,0,0.027,0c1.21,0.013,2.179,1.005,2.167,2.217
							c-0.011,1.017-1.838,102.998-60.752,220.635c-54.361,108.545-169.827,253.087-411.181,325.263
							C2593.368,2298.86,2593.158,2298.891,2592.951,2298.891z"/>
					</g>
					<g style="opacity:0.7;">
						<path style="fill:#FFFFFF;" d="M2533.742,2808.438c-0.486,0-0.973-0.159-1.378-0.486
							c-185.94-150.309-249.43-309.384-269.95-416.362c-22.251-116.023-0.142-197.638,0.084-198.448
							c0.326-1.168,1.52-1.853,2.703-1.524c1.164,0.323,1.846,1.533,1.524,2.699c-0.226,0.804-22.078,81.615,0.042,196.686
							c20.417,106.198,83.547,264.147,268.353,413.536c0.942,0.762,1.088,2.143,0.325,3.084
							C2535.013,2808.16,2534.381,2808.438,2533.742,2808.438z"/>
					</g>
					<g style="opacity:0.7;">
						<path style="fill:#FFFFFF;" d="M2787.1,1436.013c-0.827,0-1.624-0.473-1.991-1.277c-0.509-1.101-0.027-2.403,1.076-2.91
							c172.653-79.478,243.181-207.944,271.941-301.718c31.195-101.71,21.389-185.727,21.29-186.564
							c-0.149-1.202,0.705-2.297,1.907-2.445c1.191-0.144,2.301,0.706,2.443,1.909c0.107,0.844,10.025,85.639-21.393,188.211
							c-29.005,94.691-100.146,224.397-274.357,304.591C2787.721,1435.948,2787.407,1436.013,2787.1,1436.013z"/>
					</g>
				</g>
			</g>
		</g>
		<g>
			<g>
				<g>
					<defs>
						<path id="SVGID_00000006693118356484286740000017377907292197704864_" d="M1446.144,2862.076
							c22.786,3.836,75.739-7.904,88.28-16.656c83.464-58.241,246.815-157.134,272.025-261.729
							c4.305-17.863-69.166-58.017-75.255-77.468c-40.629-36.97-57.016-47.275-78.375-101.397
							c-63.057-159.781,243.562-330.487-1.811-497.94c-179.732-122.656-368.348-105.27-253.143-407.17
							c115.204-301.901,41.637-938.294-349.471-822.249c-224.46,66.599-114.529,386.584-269.551,550.769
							c-147.31,156.018-115.43,331.062,46.286,500.796c161.715,169.734,31.593,222.803-78.311,380.223
							c-132.019,189.096,179.463,324.49,328.598,374.732C1195.514,2524.444,1474.021,2708.487,1446.144,2862.076z"/>
					</defs>
					
						<linearGradient id="SVGID_00000027586790740526860900000006722860883125857424_" gradientUnits="userSpaceOnUse" x1="1104.9503" y1="1120.8813" x2="1237.1541" y2="2173.4241">
						<stop  offset="0.0036" style="stop-color:#E38DDD"/>
						<stop  offset="1" style="stop-color:#9571F6"/>
					</linearGradient>
					
						<use xlink:href="#SVGID_00000006693118356484286740000017377907292197704864_"  style="overflow:visible;fill:url(#SVGID_00000027586790740526860900000006722860883125857424_);"/>
					<clipPath id="SVGID_00000072997009439091469350000015723747968718414243_">
						<use xlink:href="#SVGID_00000006693118356484286740000017377907292197704864_"  style="overflow:visible;"/>
					</clipPath>
					<g style="opacity:0.7;clip-path:url(#SVGID_00000072997009439091469350000015723747968718414243_);">
						<g>
							<path style="fill:#FCFDFE;" d="M1665.003,2722.574l3.343-3.599c-554.37-515.23-742.979-1303.537-504.529-2108.718
								l-4.713-1.397c-113.006,381.598-130.305,774.403-50.023,1135.945C1193.48,2124.9,1385.715,2463.006,1665.003,2722.574z"/>
							<path style="fill:#FCFDFE;" d="M682.932,2181.555c206.956-4.485,522.205,89.592,702.739,209.719l2.721-4.091
								c-181.245-120.597-497.759-215.043-705.565-210.541L682.932,2181.555z"/>
							<path style="fill:#FCFDFE;" d="M1557.336,2620.187l4.21-2.534c-58.063-96.611-65.056-218.865-20.78-363.364
								c32.463-105.953,91.223-221.177,174.651-342.478l-4.051-2.784c-83.708,121.712-142.69,237.39-175.298,343.82
								C1491.366,2398.738,1498.521,2522.327,1557.336,2620.187z"/>
							<path style="fill:#FCFDFE;" d="M1099.679,1693.046l4.337-2.312c-100.081-187.735-298.903-290.301-448.072-343.288
								l-1.645,4.633C802.65,1404.773,1000.341,1506.701,1099.679,1693.046z"/>
							<path style="fill:#FCFDFE;" d="M1059.87,1207.67l4.793,1.086c53.002-233.735,245.906-395.223,356.174-470.681l-2.775-4.057
								C1307.199,809.885,1113.244,972.297,1059.87,1207.67z"/>
						</g>
					</g>
				</g>
			</g>
		</g>
		<g>
			<g>
				<g>
					
						<linearGradient id="SVGID_00000155860630810810950790000014013381015450997943_" gradientUnits="userSpaceOnUse" x1="3532.6624" y1="1668.4879" x2="3872.1829" y2="1668.4879" gradientTransform="matrix(0.956 0.2933 -0.2933 0.956 -1065.7607 -1401.252)">
						<stop  offset="0" style="stop-color:#FFC444"/>
						<stop  offset="0.3138" style="stop-color:#FBA94A"/>
						<stop  offset="0.9964" style="stop-color:#F36F56"/>
					</linearGradient>
					<path style="fill:url(#SVGID_00000155860630810810950790000014013381015450997943_);" d="M2125.958,1385.505
						c-141.032,459.748-207.713,784.83-332.002,746.704c-9.994-3.066-19.101-8.536-27.31-16.178
						c-31.557-29.26-50.026-90.985-55.748-176.028c-2.339-34.521-2.572-72.91-0.729-114.562
						c2.183-48.507,7.156-101.359,14.865-157.655c5.138-37.2,9.957-76.332,17.549-116.297
						c12.526-66.52,30.257-136.031,45.139-209.476l0.107-0.349c0.022-0.07,0.022-0.07,0.043-0.14l34.224-111.564
						c18.077-58.928,35.724-116.457,59.604-169.857c0.15-0.489,0.347-0.888,0.565-1.356l0.021-0.07
						c2.53-8.248,5.251-16.362,8.223-24.322c0.257-0.839,0.611-1.724,0.937-2.542c5.028-13.907,10.558-27.43,16.25-40.75
						c0.673-1.706,1.399-3.318,2.05-4.955c4.887-11.426,9.767-22.854,14.582-34.073c0.311-0.746,0.615-1.494,0.919-2.242
						c27.639-66.166,56.367-127.409,85.382-182.599c19.347-36.894,38.926-71.04,58.322-102.107
						c87.611-140.005,173.22-217.143,235.784-197.951c1.816,0.557,3.542,1.162,5.225,1.908
						C2424.367,517.446,2264.975,932.328,2125.958,1385.505z"/>
					
						<linearGradient id="SVGID_00000080183982650624929760000003828467321578151053_" gradientUnits="userSpaceOnUse" x1="3577.1731" y1="1114.4718" x2="3726.772" y2="1114.4718" gradientTransform="matrix(0.956 0.2933 -0.2933 0.956 -1065.7607 -1401.252)">
						<stop  offset="0" style="stop-color:#FFC444"/>
						<stop  offset="0.3138" style="stop-color:#FBA94A"/>
						<stop  offset="0.9964" style="stop-color:#F36F56"/>
					</linearGradient>
					<path style="fill:url(#SVGID_00000080183982650624929760000003828467321578151053_);" d="M2170.16,757.241
						c-9.456,30.827-67.622,40.44-129.838,21.355c-10.485-3.216-20.477-7.046-29.693-11.403
						c19.347-36.894,38.926-71.04,58.322-102.107c1.906,0.508,3.797,1.088,5.681,1.666
						C2136.847,685.838,2179.638,726.345,2170.16,757.241z"/>
					
						<linearGradient id="SVGID_00000003069190746462545880000013871880667511478964_" gradientUnits="userSpaceOnUse" x1="3538.8684" y1="1430.7179" x2="3668.2881" y2="1430.7179" gradientTransform="matrix(0.956 0.2933 -0.2933 0.956 -1065.7607 -1401.252)">
						<stop  offset="0" style="stop-color:#FFC444"/>
						<stop  offset="0.3138" style="stop-color:#FBA94A"/>
						<stop  offset="0.9964" style="stop-color:#F36F56"/>
					</linearGradient>
					<path style="fill:url(#SVGID_00000003069190746462545880000013871880667511478964_);" d="M2021.678,1041.82
						c-9.457,30.827-67.445,39.864-129.661,20.778c-3.7-1.135-7.65-1.477-11.225-2.802c13.969-37.55,28.902-74.01,43.188-107.868
						l1.816,0.557C1988.011,971.57,2031.156,1010.924,2021.678,1041.82z"/>
					
						<linearGradient id="SVGID_00000011734730742612772340000017031689664066816424_" gradientUnits="userSpaceOnUse" x1="3532.6626" y1="1728.6726" x2="3624.4272" y2="1728.6726" gradientTransform="matrix(0.956 0.2933 -0.2933 0.956 -1065.7607 -1401.252)">
						<stop  offset="0" style="stop-color:#FFC444"/>
						<stop  offset="0.3138" style="stop-color:#FBA94A"/>
						<stop  offset="0.9964" style="stop-color:#F36F56"/>
					</linearGradient>
					<path style="fill:url(#SVGID_00000011734730742612772340000017031689664066816424_);" d="M1892.173,1314.401
						c-8.148,26.563-52.527,37.346-104.452,27.613l0.107-0.349c0.022-0.07,0.022-0.07,0.043-0.14l33.302-108.558
						C1869.645,1253.953,1900.343,1287.768,1892.173,1314.401z"/>
					
						<linearGradient id="SVGID_00000124880143509086990120000006631174204437619889_" gradientUnits="userSpaceOnUse" x1="3550.9536" y1="2057.3774" x2="3668.3101" y2="2057.3774" gradientTransform="matrix(0.956 0.2933 -0.2933 0.956 -1065.7607 -1401.252)">
						<stop  offset="0" style="stop-color:#FFC444"/>
						<stop  offset="0.3138" style="stop-color:#FBA94A"/>
						<stop  offset="0.9964" style="stop-color:#F36F56"/>
					</linearGradient>
					<path style="fill:url(#SVGID_00000124880143509086990120000006631174204437619889_);" d="M1837.62,1641.827
						c-8.577,27.961-57.146,38.453-112.586,25.959c5.138-37.2,9.957-76.332,17.549-116.297
						C1804.543,1570.65,1847.076,1611,1837.62,1641.827z"/>
					
						<linearGradient id="SVGID_00000054251506617430361610000008089335503148326817_" gradientUnits="userSpaceOnUse" x1="3600.3184" y1="2325.2827" x2="3697.5671" y2="2325.2827" gradientTransform="matrix(0.956 0.2933 -0.2933 0.956 -1065.7607 -1401.252)">
						<stop  offset="0" style="stop-color:#FFC444"/>
						<stop  offset="0.3138" style="stop-color:#FBA94A"/>
						<stop  offset="0.9964" style="stop-color:#F36F56"/>
					</linearGradient>
					<path style="fill:url(#SVGID_00000054251506617430361610000008089335503148326817_);" d="M1786.24,1909.043
						c-6.583,21.46-36.706,32.64-75.342,30.96c-2.339-34.521-2.572-72.91-0.729-114.562
						C1761.597,1846.265,1794.689,1881.501,1786.24,1909.043z"/>
				</g>
				
					<linearGradient id="SVGID_00000098927599268734618720000001536809298904372130_" gradientUnits="userSpaceOnUse" x1="3739.5461" y1="1668.6338" x2="3872.1829" y2="1668.6338" gradientTransform="matrix(0.956 0.2933 -0.2933 0.956 -1065.7607 -1401.252)">
					<stop  offset="0" style="stop-color:#FFC444"/>
					<stop  offset="0.3138" style="stop-color:#FBA94A"/>
					<stop  offset="0.9964" style="stop-color:#F36F56"/>
				</linearGradient>
				<path style="opacity:0.4;fill:url(#SVGID_00000098927599268734618720000001536809298904372130_);" d="M2125.958,1385.505
					c-141.032,459.748-207.713,784.83-332.002,746.704c-9.994-3.066-19.101-8.536-27.31-16.178
					c21.508-35.466,54.553-78.865,91.184-130.955c74.037-105.469,176.292-395.93,209.895-632.883
					c33.521-236.902,155.95-583.659,217.341-759.851c20.069-57.704,26.025-96.794,24.894-123.298
					C2424.367,517.446,2264.975,932.328,2125.958,1385.505z"/>
			</g>
			<g>
				
					<linearGradient id="SVGID_00000096766190112952804280000008422447626227624590_" gradientUnits="userSpaceOnUse" x1="1924.4581" y1="1549.0388" x2="2247.7434" y2="1549.0388">
					<stop  offset="0" style="stop-color:#AA80F9"/>
					<stop  offset="0.9964" style="stop-color:#6165D7"/>
				</linearGradient>
				<path style="fill:url(#SVGID_00000096766190112952804280000008422447626227624590_);" d="M1926.118,1518.628
					c-3.082,16.507-1.356,33.685,0.997,50.165c2.316,16.217,6.508,31.885,20.498,41.99c3.017,2.179,6.252,4.143,9.702,5.555
					c3.781,1.548,8.453,2.083,11.79,4.515c5.503,4.009,7.848,12.59,12.193,17.812c10.509,12.629,25.025,19.936,41.287,21.57
					c3.882,0.39,8.032,0.528,11.613,2.221c4.048,1.914,7.148,5.628,10.633,8.358c6.596,5.166,14.048,7.581,22.387,7.651
					c7.802,0.065,15.546-1.944,22.982-4.135c8.775-2.586,17.527-5.251,26.29-7.878c8.728-2.616,17.524-5.068,26.187-7.893
					c7.166-2.337,14.222-5.44,19.771-10.659c6-5.643,8.47-13.148,11.373-20.619c1.377-3.544,2.881-7.521,5.854-10.064
					c2.936-2.511,6.933-3.454,10.591-4.371c14.962-3.75,29.076-9.431,39.749-21.047c9.233-10.049,14.094-24.222,11.99-37.832
					c-0.187-1.207-0.446-2.394-0.743-3.571c1.483-0.83,2.678-2.083,3.22-3.746c8.936-27.382-0.863-59.516-24.869-76.19
					c-6.699-4.653-13.771-6.881-21.139-10.129c-7.05-3.109-10.457-10.123-15.496-15.572c-10.903-11.792-24.978-10.618-39.524-8.477
					c-6.617,0.974-12.964,1.657-19.282-1.035c-7.271-3.097-13.635-7.94-20.868-11.108c-7.364-3.226-15.201-4.502-23.138-2.979
					c-7.059,1.354-13.884,4.612-21.097,5.022c-8.034,0.456-15.899-3.518-23.655-5.083c-7.105-1.433-14.549-1.799-21.771-1.232
					c-15.02,1.177-30.679,6.635-42.318,16.374c-6.309,5.279-11.88,11.737-14.743,19.558c-1.443,3.942-2.131,7.836-2.571,11.989
					c-0.387,3.654-0.591,7.21-2.978,10.164c-2.574,3.186-6.096,5.592-9.002,8.46c-2.898,2.862-5.292,6.096-7.443,9.546
					C1930.287,1502.859,1927.608,1510.65,1926.118,1518.628z"/>
				
					<linearGradient id="SVGID_00000123427903437361015340000001309261369960948377_" gradientUnits="userSpaceOnUse" x1="731.9365" y1="1595.0547" x2="763.8382" y2="1910.881" gradientTransform="matrix(-0.7683 -0.6401 -0.6401 0.7683 3809.1167 645.1779)">
					<stop  offset="0" style="stop-color:#AA80F9"/>
					<stop  offset="0.9964" style="stop-color:#6165D7"/>
				</linearGradient>
				<path style="opacity:0.4;fill:url(#SVGID_00000123427903437361015340000001309261369960948377_);" d="M1943.472,1485.067
					c13.819,25.957,30.469,50.75,43.983,76.917c8.948,15.161,24.113,24.711,38.367,33.503c15.922,8.64,35.331,9.395,52.311,1.963
					c33.356-12.287,54.124-42.767,91.575-47.019c24.912-2.269,49.222-1.976,72.484,5.058c1.53,13.137-3.287,26.633-12.176,36.308
					c-10.673,11.617-24.787,17.297-39.749,21.048c-3.658,0.917-7.655,1.859-10.591,4.371c-2.973,2.542-4.477,6.52-5.853,10.064
					c-2.903,7.472-5.373,14.976-11.373,20.619c-5.549,5.219-12.604,8.322-19.771,10.659c-8.662,2.825-17.459,5.277-26.187,7.893
					c-8.762,2.626-17.515,5.292-26.29,7.878c-7.436,2.191-15.18,4.201-22.982,4.136c-8.339-0.07-15.792-2.485-22.387-7.651
					c-3.486-2.73-6.586-6.444-10.634-8.357c-3.581-1.693-7.731-1.831-11.613-2.222c-16.263-1.634-30.779-8.941-41.287-21.57
					c-4.345-5.222-6.69-13.803-12.193-17.812c-3.337-2.432-8.009-2.968-11.79-4.515c-3.45-1.412-6.685-3.377-9.701-5.555
					c-13.99-10.104-18.182-25.773-20.498-41.989c-2.353-16.48-4.079-33.658-0.997-50.166c1.489-7.978,4.169-15.769,8.471-22.67
					c2.151-3.45,4.545-6.684,7.443-9.546C1942.497,1485.953,1942.982,1485.507,1943.472,1485.067z"/>
				
					<linearGradient id="SVGID_00000048497851924500289560000010430295831461625480_" gradientUnits="userSpaceOnUse" x1="467.4249" y1="750.606" x2="901.7605" y2="1671.7793" gradientTransform="matrix(-0.7683 -0.6401 -0.6401 0.7683 3809.1167 645.1779)">
					<stop  offset="0" style="stop-color:#AA80F9"/>
					<stop  offset="0.9964" style="stop-color:#6165D7"/>
				</linearGradient>
				<path style="fill:url(#SVGID_00000048497851924500289560000010430295831461625480_);" d="M2142.945,1311.607
					c-14.033-16.185-33.691-28.171-54.788-31.537c5.673-21.236-1.935-45.408-21.11-58.88c-25.012-17.573-54.576-14.663-80.913-3.346
					c-22.09-6.729-46.98-5.728-68.05,3.507c-46.581,20.417-66.555,73.41-52.472,119.785c-20.295,5.995-36.829,21.843-42.968,42.861
					c-7.788,26.665,3.173,53.536,24.114,70.718c10.63,8.721,22.853,15.173,34.296,22.711c12.589,8.293,20.495,18.577,30.031,29.976
					c18.672,22.317,46.912,35.175,76.138,33.58c25.932-1.415,49.402-14.789,65.418-34.561c15.725,9.038,34.844,10.897,52.824,6.898
					c25.595-5.693,46.135-22.687,57.984-45.915C2187.431,1420.39,2177.273,1351.198,2142.945,1311.607z"/>
				<g>
					
						<linearGradient id="SVGID_00000099622230094630201200000004667634020158508164_" gradientUnits="userSpaceOnUse" x1="1932.0011" y1="1308.5844" x2="2531.4395" y2="1308.5844">
						<stop  offset="0" style="stop-color:#AA80F9"/>
						<stop  offset="0.9964" style="stop-color:#6165D7"/>
					</linearGradient>
					<path style="fill:url(#SVGID_00000099622230094630201200000004667634020158508164_);" d="M2357.828,1551.336
						c13.758-1.94,52.254-13.203,72.471-33.35c21.311-21.237,17.715-64.153,26.361-75.021c8.646-10.868,34.146-18.547,50.792-39.053
						c24.099-29.687,32.009-70.556,14.595-95.626c-7.496-10.792-29.383-28.082-26.411-43.907
						c3.371-7.789,28.134-22.273,24.71-70.476c-2.732-38.476-24.895-96.898-101.052-112.468
						c-14.898-8.675-13.049-42.11-52.011-58.229c-38.963-16.119-63.497,8.729-77.714,0.451
						c-14.217-8.278-48.443-29.043-83.347-29.996c-40.66-1.11-79.477,17.6-109.097,50.138c-7.378,8.105-13.571,16.952-18.948,26.123
						c-2.255,3.846-2.873,5.247-7.301,5.448c-5.24,0.238-10.307,0.161-15.613,0.724c-18.818,1.998-40.732,5.905-57.767,16.473
						c-34.406,21.345-54.362,60.831-56.651,96.394c-2.17,33.719,31.627,94.157,28.067,104.25
						c-3.56,10.093-38.451,43.054-36.859,83.462c2.026,51.397,27.478,93.798,73.992,116.274
						c20.507,9.909,77.106,23.006,92.059,33.004c14.953,9.998,12.003,57.993,35.466,79.296
						c25.474,23.128,53.38,21.604,92.481,10.471c21.147-6.021,33.905-3.222,51.404-17.73c20.173,6.2,46.711-4.954,63.576-21.451
						C2348.656,1569.08,2344.07,1553.277,2357.828,1551.336z"/>
				</g>
				<g style="opacity:0.4;">
					
						<linearGradient id="SVGID_00000021828266344814852390000001799702255147915448_" gradientUnits="userSpaceOnUse" x1="652.457" y1="1311.7969" x2="1060.2745" y2="1311.7969" gradientTransform="matrix(-0.7683 -0.6401 -0.6401 0.7683 3809.1167 645.1779)">
						<stop  offset="0" style="stop-color:#AA80F9"/>
						<stop  offset="0.9964" style="stop-color:#6165D7"/>
					</linearGradient>
					<path style="fill:url(#SVGID_00000021828266344814852390000001799702255147915448_);" d="M2415.881,1132.812
						c-53.677-7.724-92.486,37.012-142.37,43.237c-49.884,6.225-61.721-59.124-89.171-92.781
						c-9.554-12.583-22.445-24.863-35.333-27.894c-19.948-5.263-40.609-5.564-60.525-1.051c2.696-3.615,5.561-7.137,8.644-10.524
						c29.62-32.538,68.436-51.248,109.096-50.138c34.904,0.952,69.13,21.718,83.348,29.996c14.217,8.279,38.751-16.57,77.714-0.451
						c38.963,16.119,37.113,49.554,52.011,58.229c64.961,13.281,90.632,57.74,98.473,94.405c-1.058-0.803-2.115-1.605-3.172-2.409
						C2487.3,1150.692,2453.334,1137.809,2415.881,1132.812z"/>
					
						<linearGradient id="SVGID_00000160168788342781608620000014577805909568900481_" gradientUnits="userSpaceOnUse" x1="500.4739" y1="1638.8077" x2="1111.1559" y2="1638.8077" gradientTransform="matrix(-0.7683 -0.6401 -0.6401 0.7683 3809.1167 645.1779)">
						<stop  offset="0" style="stop-color:#AA80F9"/>
						<stop  offset="0.9964" style="stop-color:#6165D7"/>
					</linearGradient>
					<path style="fill:url(#SVGID_00000160168788342781608620000014577805909568900481_);" d="M1997.497,1092.569
						c11.701-7.259,25.704-11.375,39.425-13.889c-21.046,17.833-50.914,41.419-36.95,66.785
						c23.206,42.452,71.882,69.13,85.688,119.164c14.11,53.37-38.347,86.736-81.103,106.606
						c-15.313,7.281-16.524,21.685-11.063,35.482c14.411,38.208,47.47,68.831,86.895,77.012
						c93.405,19.241,181.799-7.308,276.261-13.388c25.018-2.278,46.855,15.913,65.811,30.163c8.9-7.907,17.506-16.113,25.887-24.552
						c-2.842,14.915-7.24,31.262-18.049,42.034c-20.217,20.147-58.713,31.409-72.471,33.35c-13.758,1.94-9.172,17.744-16.795,25.202
						c-16.865,16.497-43.404,27.651-63.576,21.451c-17.499,14.508-30.257,11.709-51.404,17.73
						c-39.101,11.132-67.008,12.656-92.481-10.472c-23.464-21.303-20.514-69.298-35.467-79.296
						c-14.953-9.999-71.552-23.096-92.059-33.004c-46.514-22.475-71.967-64.876-73.992-116.274
						c-1.593-40.408,33.299-73.369,36.858-83.462c3.56-10.093-30.237-70.53-28.066-104.25
						C1943.134,1153.399,1963.091,1113.913,1997.497,1092.569z"/>
				</g>
				
					<linearGradient id="SVGID_00000131347595086475398000000012600435585289523898_" gradientUnits="userSpaceOnUse" x1="585.048" y1="1727.6808" x2="2116.9453" y2="839.228" gradientTransform="matrix(-0.7683 -0.6401 -0.6401 0.7683 3809.1167 645.1779)">
					<stop  offset="0" style="stop-color:#AA80F9"/>
					<stop  offset="0.9964" style="stop-color:#6165D7"/>
				</linearGradient>
				<path style="fill:url(#SVGID_00000131347595086475398000000012600435585289523898_);" d="M2052.474,1350.121
					c137.645,110.258,176.802,308.588,176.802,308.588l128.098-80.146c-175.436-201.404-134.527-284.584-136.002-370.605
					c0,0-10.671-20.942-18.07,3.086c-3.91,12.698-9.186,64.114-0.521,121.265c-41.434-61.334-34.929-114.915-49.333-131.323
					c-4.896-5.578-18.542-4.005-18.542-4.005s19.979,144.669,98.709,301.252c0,0-87.912-152.488-137.289-187.006
					c-9.242-6.277-15.604,1.615-8.213,16.218c0,0,22.607,26.274,47.621,71.106c-44.147-38.188-51.537-47.372-67.094-60.334
					C2053.083,1325.256,2045.358,1335.611,2052.474,1350.121z"/>
				
					<linearGradient id="SVGID_00000136395634006634349740000016377544976432615584_" gradientUnits="userSpaceOnUse" x1="2314.3242" y1="1290.2777" x2="2587.3362" y2="1290.2777">
					<stop  offset="0" style="stop-color:#AA80F9"/>
					<stop  offset="0.9964" style="stop-color:#6165D7"/>
				</linearGradient>
				<path style="fill:url(#SVGID_00000136395634006634349740000016377544976432615584_);" d="M2553.12,1333.228
					c17.424-3.896,29.896-19.942,33.086-38.278c3.903-22.439-2.631-46.419-14.675-65.414
					c-22.236-35.069-64.891-51.019-104.443-42.254c-6.109-12.031-18.265-21.051-31.94-22.134
					c-12.602-0.999-23.81,4.25-31.583,12.967c-7.071-0.323-14.09,0.209-20.841,1.906c-16.728,4.205-30.928,19.311-31.092,36.227
					c-23.087,8.35-35.397,37.239-37.042,60.522c-1.174,16.623,1.203,35.196,13.749,47.369c5.207,5.053,12.168,6.099,12.812,13.929
					c0.614,7.453,1.374,14.691,4.271,21.688c5.794,13.994,16.508,25.395,29.82,32.523c5.695,3.049,12.135,5.212,18.522,6.205
					c7.333,1.14,16.202-1.725,23.106,0.282c3.982,1.158,7.724,5.404,11.085,7.736c3.189,2.212,6.502,4.239,10.12,5.666
					c6.779,2.674,14.024,3.64,21.28,3.297c13.934-0.66,27.325-6.73,39.083-13.838
					C2522.933,1386.816,2548.959,1362.727,2553.12,1333.228z"/>
				
					<linearGradient id="SVGID_00000069392876978436558740000018133019789019359378_" gradientUnits="userSpaceOnUse" x1="514.256" y1="1373.8483" x2="746.0693" y2="1373.8483" gradientTransform="matrix(-0.7683 -0.6401 -0.6401 0.7683 3809.1167 645.1779)">
					<stop  offset="0" style="stop-color:#AA80F9"/>
					<stop  offset="0.9964" style="stop-color:#6165D7"/>
				</linearGradient>
				<path style="opacity:0.4;fill:url(#SVGID_00000069392876978436558740000018133019789019359378_);" d="M2355.717,1321.597
					c6.521,6.974,16.075,19.557,20.775,15.766c42.904-36.701,98.252-10.63,146.168-1.54c28.203,4.999,43.058-25.783,51.242-46.709
					c3.904-9.067,7.687-20.261,9.978-31.885c3.433,12.303,4.497,25.25,2.327,37.722c-3.19,18.336-15.663,34.383-33.086,38.278
					c-4.161,29.5-30.187,53.589-54.682,68.398c-11.758,7.108-25.149,13.178-39.083,13.838c-7.257,0.343-14.501-0.622-21.28-3.297
					c-3.618-1.427-6.932-3.455-10.121-5.667c-3.361-2.331-7.103-6.578-11.084-7.736c-6.904-2.007-15.773,0.857-23.106-0.282
					c-6.386-0.992-12.826-3.156-18.522-6.204c-13.312-7.128-24.026-18.529-29.82-32.523c-2.897-6.998-3.657-14.236-4.271-21.688
					c-0.645-7.831-7.605-8.877-12.812-13.929c-12.545-12.173-14.923-30.747-13.749-47.369c0.087-1.229,0.21-2.477,0.356-3.733
					C2328.358,1289.047,2340.977,1305.572,2355.717,1321.597z"/>
				
					<linearGradient id="SVGID_00000027575877887693710330000001851661701393615758_" gradientUnits="userSpaceOnUse" x1="1839.343" y1="1428.9456" x2="2160.2205" y2="1428.9456">
					<stop  offset="0" style="stop-color:#AA80F9"/>
					<stop  offset="0.9964" style="stop-color:#6165D7"/>
				</linearGradient>
				<path style="fill:url(#SVGID_00000027575877887693710330000001851661701393615758_);" d="M2100.321,1280.51
					c-14.978-12.127-33.258-19.769-51.176-26.395c-17.632-6.521-35.737-10.848-53.576-2.247c-3.847,1.854-7.596,4.047-10.906,6.757
					c-3.627,2.971-6.72,7.393-10.997,9.433c-7.052,3.364-16.994,1.044-24.638,2.577c-18.486,3.708-33.79,14.368-44.322,29.889
					c-2.515,3.705-4.92,7.818-8.585,10.508c-4.142,3.04-9.584,4.14-14.243,6.167c-8.817,3.836-15.325,10.038-19.95,18.417
					c-4.328,7.839-6.53,16.752-8.38,25.455c-2.183,10.269-4.274,20.559-6.409,30.838c-2.127,10.237-4.457,20.456-6.337,30.742
					c-1.556,8.509-2.278,17.325-0.042,25.776c2.418,9.138,8.644,15.73,14.599,22.741c2.825,3.326,6.017,7.016,6.96,11.405
					c0.931,4.335-0.301,8.884-1.374,13.077c-4.388,17.15-6.364,34.497-0.469,51.615c5.099,14.807,16.749,27.455,31.634,32.766
					c1.32,0.471,2.661,0.857,4.01,1.201c0.028,1.951,0.64,3.841,2.021,5.297c22.756,23.975,60.54,31.638,90.483,16.516
					c8.356-4.22,14.467-10.141,21.77-15.803c6.988-5.417,15.929-5.025,24.181-7.134c17.857-4.563,24.361-19.411,30.144-35.261
					c2.631-7.211,5.409-13.99,11.576-18.896c7.097-5.646,15.461-9.425,22.61-14.994c7.278-5.67,12.847-12.883,15.646-21.726
					c2.489-7.864,2.929-16.533,6.455-24.036c3.928-8.358,12.235-14.125,18.051-21.098c5.328-6.388,9.762-13.702,13.136-21.301
					c7.016-15.802,10.061-34.588,6.589-51.656c-1.882-9.252-5.357-18.402-11.687-25.563c-3.19-3.609-6.745-6.432-10.697-9.144
					c-3.476-2.386-6.954-4.535-8.631-8.558c-1.809-4.339-2.314-9.207-3.622-13.707c-1.305-4.489-3.262-8.671-5.569-12.727
					C2113.96,1293.331,2107.56,1286.371,2100.321,1280.51z"/>
				
					<linearGradient id="SVGID_00000054976807692697779910000000271317181912302223_" gradientUnits="userSpaceOnUse" x1="758.3555" y1="1814.3497" x2="1054.9143" y2="1814.3497" gradientTransform="matrix(-0.7683 -0.6401 -0.6401 0.7683 3809.1167 645.1779)">
					<stop  offset="0" style="stop-color:#AA80F9"/>
					<stop  offset="0.9964" style="stop-color:#6165D7"/>
				</linearGradient>
				<path style="opacity:0.4;fill:url(#SVGID_00000054976807692697779910000000271317181912302223_);" d="M1881.876,1317.199
					c4.659-2.027,10.101-3.128,14.244-6.167c3.665-2.69,6.071-6.803,8.585-10.508c8.409-12.393,19.868-21.673,33.552-26.803
					c-1.156,1.828-2.309,3.658-3.462,5.489c-1.516,1.82-3.486,7.885-4.092,10.463c-15.158,27.447-42.597,58.535-27.43,86.583
					c7.281,15.313,28.054,21.83,36.093,36.233c13.65,20.619,5.163,47.458,9.867,71.414c2.429,17.437-0.752,37.907,19.264,45.333
					c33.077,11.969,70.157,12.259,103.137,1.526c-3.131,4.147-5.062,9.007-6.915,14.084c-5.783,15.85-12.287,30.698-30.144,35.261
					c-8.252,2.109-17.193,1.716-24.181,7.133c-7.303,5.662-13.415,11.583-21.77,15.803c-29.943,15.121-67.728,7.458-90.483-16.517
					c-1.381-1.455-1.993-3.346-2.021-5.296c-1.349-0.343-2.69-0.73-4.01-1.201c-14.885-5.31-26.535-17.958-31.634-32.766
					c-5.895-17.118-3.919-34.465,0.469-51.615c1.073-4.194,2.305-8.742,1.374-13.077c-0.943-4.39-4.136-8.08-6.96-11.405
					c-5.955-7.011-12.181-13.604-14.599-22.741c-2.236-8.451-1.514-17.268,0.042-25.777c1.881-10.286,4.211-20.504,6.338-30.741
					c2.136-10.279,4.226-20.569,6.409-30.838c1.85-8.703,4.052-17.615,8.38-25.455
					C1866.552,1327.237,1873.059,1321.035,1881.876,1317.199z"/>
				
					<linearGradient id="SVGID_00000062903305180691618720000001697120096757552788_" gradientUnits="userSpaceOnUse" x1="2052.0779" y1="1234.6049" x2="2422.2344" y2="1234.6049">
					<stop  offset="0" style="stop-color:#AA80F9"/>
					<stop  offset="0.9964" style="stop-color:#6165D7"/>
				</linearGradient>
				<path style="fill:url(#SVGID_00000062903305180691618720000001697120096757552788_);" d="M2281.884,1073.559
					c-22.15-0.402-44.962,6.425-62.14,20.319c-12.406-19.048-36.255-29.916-59.876-24.487c-30.811,7.08-49.019,31.826-58.531,59.906
					c-20.451,12.333-36.895,32.164-44.365,54.753c-16.515,49.94,10.421,101.947,55.821,123.19
					c-9.426,19.752-8.674,43.426,3.243,62.682c15.118,24.43,43.361,34.585,71.056,30.364c14.058-2.143,27.472-7.08,41.181-10.666
					c15.083-3.946,28.459-2.912,43.819-2.362c30.074,1.075,59.491-11.747,78.477-35.324c16.845-20.919,22.793-48.215,18.666-74.206
					c17.825-5.842,32.477-19.257,41.836-35.849c13.323-23.619,14.461-51.166,4.794-76.341
					C2396.3,1114.583,2336.068,1074.543,2281.884,1073.559z"/>
				
					<linearGradient id="SVGID_00000034060384819035072750000015159825940988654266_" gradientUnits="userSpaceOnUse" x1="668.1855" y1="1459.7552" x2="1007.9054" y2="1459.7552" gradientTransform="matrix(-0.7683 -0.6401 -0.6401 0.7683 3809.1167 645.1779)">
					<stop  offset="0" style="stop-color:#AA80F9"/>
					<stop  offset="0.9964" style="stop-color:#6165D7"/>
				</linearGradient>
				<path style="opacity:0.4;fill:url(#SVGID_00000034060384819035072750000015159825940988654266_);" d="M2081.412,1245.676
					c14.107,34.872,54.137,40.475,88.556,39.863c40.181-1.978,56.715,41.082,88.711,60.03c6.217,3.638,13.041,4.698,19.256-0.913
					c27.591-29.42,20.61-69.145,16.358-106.596c-3.035-14.859,8.639-25.171,23.346-29.874c13.191-2.883,24.867,5.303,33.966,12.883
					c25.528-34.673,29.316-84.198,9.065-121.038c24.808,16.563,45.254,39.619,55.195,65.507c9.667,25.175,8.53,52.723-4.793,76.341
					c-9.359,16.591-24.011,30.007-41.836,35.849c4.127,25.99-1.82,53.286-18.666,74.205c-18.986,23.577-48.403,36.399-78.477,35.324
					c-15.36-0.549-28.735-1.583-43.819,2.363c-13.709,3.586-27.124,8.523-41.182,10.665c-27.695,4.221-55.938-5.934-71.056-30.364
					c-11.916-19.256-12.668-42.931-3.243-62.682c-45.4-21.243-72.335-73.25-55.821-123.19c4.739-14.332,13.1-27.545,23.795-38.446
					C2069.245,1177.657,2068.308,1213.606,2081.412,1245.676z"/>
				
					<linearGradient id="SVGID_00000178206156444784586480000015013493200902530951_" gradientUnits="userSpaceOnUse" x1="543.5256" y1="1587.3309" x2="538.4064" y2="1906.011" gradientTransform="matrix(-0.7683 -0.6401 -0.6401 0.7683 3809.1167 645.1779)">
					<stop  offset="0" style="stop-color:#AA80F9"/>
					<stop  offset="0.9964" style="stop-color:#6165D7"/>
				</linearGradient>
				<path style="fill:url(#SVGID_00000178206156444784586480000015013493200902530951_);" d="M2355.901,1574.84
					c-17.967-14.967-132.164,35.509-128.098,80.147C2231.868,1699.624,2391.365,1604.384,2355.901,1574.84z"/>
			</g>
			<g>
				
					<linearGradient id="SVGID_00000150785587483794639350000010412979412713166477_" gradientUnits="userSpaceOnUse" x1="1514.9966" y1="856.4628" x2="1547.902" y2="547.6573">
					<stop  offset="0" style="stop-color:#AA80F9"/>
					<stop  offset="0.9964" style="stop-color:#6165D7"/>
				</linearGradient>
				<path style="fill:url(#SVGID_00000150785587483794639350000010412979412713166477_);" d="M1716.712,809.945l-383.691-2.833
					V718.51c0-8.352,7.022-14.986,15.361-14.511l354.622,20.195c7.694,0.438,13.708,6.805,13.708,14.511V809.945z"/>
				<path style="fill:#D8DEE8;" d="M1721.105,809.945l-383.691-21.851V718.51c0-8.352,7.022-14.986,15.361-14.511l354.622,20.195
					c7.694,0.438,13.708,6.805,13.708,14.511V809.945z"/>
				<g>
					<polygon style="fill:#D8DEE8;" points="1917.479,1947.288 1542.976,1968.105 1542.976,879.172 1917.479,899.984 					"/>
					<g>
						
							<linearGradient id="SVGID_00000096031412729331186100000015847019155306191775_" gradientUnits="userSpaceOnUse" x1="1620.8414" y1="1502.1276" x2="1877.734" y2="1516.287">
							<stop  offset="0.0036" style="stop-color:#EBEFF2"/>
							<stop  offset="1" style="stop-color:#FFFFFF"/>
						</linearGradient>
						<path style="fill:url(#SVGID_00000096031412729331186100000015847019155306191775_);" d="M1794.484,1047.058
							c-95.631,24.204,54.089,148.341-30.395,174.286c-67.082,20.6-59.088-166.233-120.472-113.195
							c-62.172,53.717,20.373,213.906,62.207,336.899c41.475,121.934,43.638,297.965-81.173,267.107
							c-34.904-8.629-60.286-21.254-81.675-35.247v291.197l374.503-20.817v-858.743
							C1887.704,1054.99,1844.96,1034.282,1794.484,1047.058z"/>
					</g>
				</g>
				<g>
					
						<linearGradient id="SVGID_00000121961557981708773800000015616590542387436466_" gradientUnits="userSpaceOnUse" x1="1168.9077" y1="1423.9847" x2="1543.1722" y2="1423.9847">
						<stop  offset="0" style="stop-color:#AA80F9"/>
						<stop  offset="0.9964" style="stop-color:#6165D7"/>
					</linearGradient>
					<polygon style="fill:url(#SVGID_00000121961557981708773800000015616590542387436466_);" points="1543.172,1968.105 
						1168.908,1899.329 1168.908,998.695 1543.172,879.865 					"/>
					
						<linearGradient id="SVGID_00000007429640595897211220000007698675908398981782_" gradientUnits="userSpaceOnUse" x1="1259.2448" y1="893.668" x2="1382.4153" y2="946.7123">
						<stop  offset="0.0036" style="stop-color:#EBEFF2"/>
						<stop  offset="1" style="stop-color:#FFFFFF"/>
					</linearGradient>
					<polygon style="fill:url(#SVGID_00000007429640595897211220000007698675908398981782_);" points="1543.172,879.865 
						1168.908,998.695 1338.388,783.821 1338.388,783.821 					"/>
					<g style="opacity:0.3;">
						<polygon style="fill:#E6E6E6;" points="1338.388,783.821 1168.907,998.695 1388.049,807.112 						"/>
					</g>
					<path style="fill:#D8DEE8;" d="M1168.907,1688.406v210.923l374.265,68.776v-290.866
						c-63.844-40.472-93.757-86.23-197.659-96.313C1277.738,1574.349,1213.583,1632.422,1168.907,1688.406z"/>
					<g>
						
							<linearGradient id="SVGID_00000127014441146077306260000006488725821003720101_" gradientUnits="userSpaceOnUse" x1="1206.9404" y1="1413.3979" x2="1354.7158" y2="1413.3979">
							<stop  offset="0.0036" style="stop-color:#EBEFF2"/>
							<stop  offset="1" style="stop-color:#FFFFFF"/>
						</linearGradient>
						<path style="fill:url(#SVGID_00000127014441146077306260000006488725821003720101_);" d="M1260.855,1377.366v0.381
							l57.451,21.988v30.462l-57.451,25.659v0.381l93.861-0.531v32.592l-147.775-2.186v-31.958l83.537-38.105v-0.388l-83.537-32.767
							v-32.692l147.775-11.704v33.401L1260.855,1377.366z"/>
						
							<linearGradient id="SVGID_00000065067527031371499770000017514774285196797332_" gradientUnits="userSpaceOnUse" x1="1206.9404" y1="1293.1837" x2="1354.7158" y2="1293.1837">
							<stop  offset="0.0036" style="stop-color:#EBEFF2"/>
							<stop  offset="1" style="stop-color:#FFFFFF"/>
						</linearGradient>
						<path style="fill:url(#SVGID_00000065067527031371499770000017514774285196797332_);" d="M1354.716,1304.692l-147.775,14.839
							v-34.345l147.775-18.349V1304.692z"/>
						
							<linearGradient id="SVGID_00000100341536990838595620000009822903211183208851_" gradientUnits="userSpaceOnUse" x1="1206.9404" y1="1194.8879" x2="1354.7158" y2="1194.8879">
							<stop  offset="0.0036" style="stop-color:#EBEFF2"/>
							<stop  offset="1" style="stop-color:#FFFFFF"/>
						</linearGradient>
						<path style="fill:url(#SVGID_00000100341536990838595620000009822903211183208851_);" d="M1206.94,1222.376l116.924-19.597
							v-61.142l30.851-6.378v97.774l-147.775,21.483V1222.376z"/>
						
							<linearGradient id="SVGID_00000163775004852055997570000013868554731451816866_" gradientUnits="userSpaceOnUse" x1="1206.9404" y1="1065.2897" x2="1354.7158" y2="1065.2897">
							<stop  offset="0.0036" style="stop-color:#EBEFF2"/>
							<stop  offset="1" style="stop-color:#FFFFFF"/>
						</linearGradient>
						<path style="fill:url(#SVGID_00000163775004852055997570000013868554731451816866_);" d="M1206.94,1111.263l59.866-14.634
							v-0.382l-59.866-25.94v-36.181l67.273,29.94l80.503-75.971v39.879l-73.024,64.631v0.386l73.024-17.851v34.414l-147.775,32.933
							V1111.263z"/>
					</g>
				</g>
				
					<linearGradient id="SVGID_00000139974738136620067610000011924077605795751589_" gradientUnits="userSpaceOnUse" x1="1620.4598" y1="912.0426" x2="1646.7557" y2="665.264">
					<stop  offset="0.0036" style="stop-color:#EBEFF2"/>
					<stop  offset="1" style="stop-color:#FFFFFF"/>
				</linearGradient>
				<polygon style="fill:url(#SVGID_00000139974738136620067610000011924077605795751589_);" points="1338.388,783.821 
					1721.105,801.043 1917.479,899.984 1543.172,879.865 				"/>
				<polygon style="fill:#E6E6E6;" points="1543.172,879.865 1338.388,783.821 1367.067,822.656 				"/>
			</g>
			<g>
				
					<linearGradient id="SVGID_00000023992293059167275090000014252042635910059922_" gradientUnits="userSpaceOnUse" x1="1794.0636" y1="1085.0295" x2="1848.2277" y2="1085.0295">
					<stop  offset="0" style="stop-color:#311944"/>
					<stop  offset="1" style="stop-color:#893976"/>
				</linearGradient>
				<path style="fill:url(#SVGID_00000023992293059167275090000014252042635910059922_);" d="M1846.929,1008.754
					c-1.929-4.55-5.811-7.985-10.561-9.347c-11.433-3.278-23.639,2.328-29.596,12.622c-26.947,46.565-2.663,159.559-2.663,159.559
					h18.164c-9.365-75.535,10.622-122.91,24.032-148.081C1848.628,1019.145,1848.858,1013.304,1846.929,1008.754z"/>
				
					<linearGradient id="SVGID_00000151502319791440625470000011150549088318838454_" gradientUnits="userSpaceOnUse" x1="1609.3456" y1="1353.5283" x2="2117.8589" y2="1353.5283">
					<stop  offset="0" style="stop-color:#FF9085"/>
					<stop  offset="1" style="stop-color:#FB6FBB"/>
				</linearGradient>
				<path style="fill:url(#SVGID_00000151502319791440625470000011150549088318838454_);" d="M2112.995,1311.178
					c-5.935,35.089-13.194,76.112-24.462,116.008c-12.961,45.87-31.177,90.299-58.675,122.566
					c-44.76,52.545-89.521,23.353-190.719,23.353c-65.059,0-85.979-28.082-120.989-76.969
					c-39.642-55.328-89.131-103.959-104.74-172.618c-14.284-62.898,9.615-127.897,63.385-151.931h0.019
					c15.667-13.734,33.882-11.406,54.413-10.472c15.881,0.72,30.982,1.186,45.696,1.498c34.484,0.701,67.004-1.49,103.338-13.594
					c52.954-17.651,172.99-46.634,214.267,10.776C2122.648,1198.893,2120.488,1266.69,2112.995,1311.178z"/>
				
					<linearGradient id="SVGID_00000109724412817347216530000014843158475430424980_" gradientUnits="userSpaceOnUse" x1="1609.3456" y1="1376.3896" x2="2088.5327" y2="1376.3896">
					<stop  offset="0" style="stop-color:#FF9085"/>
					<stop  offset="1" style="stop-color:#FB6FBB"/>
				</linearGradient>
				<path style="opacity:0.3;fill:url(#SVGID_00000109724412817347216530000014843158475430424980_);" d="M2088.533,1427.186
					c-12.961,45.87-31.177,90.299-58.675,122.566c-44.76,52.545-89.521,23.353-190.719,23.353
					c-65.059,0-85.979-28.082-120.989-76.969c-39.642-55.328-89.131-103.959-104.74-172.618
					c-14.284-62.898,9.615-127.897,63.385-151.931h0.019c0,0-66.343,164.756,54.316,198.813
					c120.659,34.057,129.416,171.899,236.452,112.542C2015.495,1456.379,2056.986,1435.321,2088.533,1427.186z"/>
				<path style="opacity:0.5;fill:#FFFFFF;" d="M2004.558,1163.106c0,0-97.305-16.498-68.114,53.712
					c29.192,70.21,108.982,137.545,136.228,89.281C2099.917,1257.836,2060.995,1181.251,2004.558,1163.106z"/>
			</g>
			<g>
				
					<linearGradient id="SVGID_00000112597995437496120830000001416804166373594253_" gradientUnits="userSpaceOnUse" x1="858.3091" y1="733.8076" x2="1322.9644" y2="2439.8091">
					<stop  offset="0" style="stop-color:#FFC444"/>
					<stop  offset="0.3138" style="stop-color:#FBA94A"/>
					<stop  offset="0.9964" style="stop-color:#F36F56"/>
				</linearGradient>
				<path style="fill:url(#SVGID_00000112597995437496120830000001416804166373594253_);" d="M1359.547,1822.39l-48.925,600.241
					l-7.899,141.198c-17.318,91.111-35.568,154.796-52.182,155.145c-38.473,0.697-93.209-69.147-134.224-126.208
					c-16.626-23.243-30.915-44.393-41.026-57.758c-34.864-46.485,8.716-464.852,20.337-520.053
					c11.621-55.201,19.407-487.164,15.457-508.432c-3.836-21.268,31.028-203.373,31.028-203.373l50.9,58.107l3.371,3.836l77.4-44.51
					l34.864,54.271C1308.647,1374.854,1341.071,1648.652,1359.547,1822.39z"/>
				
					<linearGradient id="SVGID_00000101791322117778333390000015439738437335739552_" gradientUnits="userSpaceOnUse" x1="1242.7467" y1="1996.0554" x2="828.7646" y2="3154.3257">
					<stop  offset="0" style="stop-color:#FFC444"/>
					<stop  offset="0.3138" style="stop-color:#FBA94A"/>
					<stop  offset="0.9964" style="stop-color:#F36F56"/>
				</linearGradient>
				<path style="opacity:0.7;fill:url(#SVGID_00000101791322117778333390000015439738437335739552_);" d="M1359.547,1822.39
					l-48.925,600.241l-7.899,141.198c-17.318,91.111-35.568,154.796-52.182,155.145c-38.473,0.697-93.209-69.147-134.224-126.208
					c30.563-116.678,104.819-404.305,100.642-433.475c-4.539-32.888-20.576-663.228-23.946-798.035l3.371,3.836l77.4-44.51
					l34.864,54.271C1308.647,1374.854,1341.071,1648.652,1359.547,1822.39z"/>
				
					<linearGradient id="SVGID_00000126298714817725581560000007402965217552004775_" gradientUnits="userSpaceOnUse" x1="1931.6118" y1="2022.8645" x2="1385.3987" y2="3551.1011">
					<stop  offset="0" style="stop-color:#FFC444"/>
					<stop  offset="0.3138" style="stop-color:#FBA94A"/>
					<stop  offset="0.9964" style="stop-color:#F36F56"/>
				</linearGradient>
				<path style="fill:url(#SVGID_00000126298714817725581560000007402965217552004775_);" d="M2575.018,2587.654
					c1.282,47.414-23.243,89.6-61.012,113.075c-18.238,11.272-39.506,18.129-62.521,19.175
					c-354.563,14.759-1174.104,99.595-1200.944-0.929c-30.915-116.213,89.135-643.007,85.299-708.899
					c-3.949-65.778-27.192-635.222-27.192-635.222l59.854,14.876l17.659,4.418l127.834-58.107l112.377,62.056l147.128-62.056
					l112.377,65.892l112.377-46.485l92.97,46.485l116.213-65.892l73.564,58.107l120.049-58.107l69.728,65.892l73.677-65.892
					l3.836,62.056C2548.291,1398.096,2566.302,2253.193,2575.018,2587.654z"/>
				
					<linearGradient id="SVGID_00000127035895116499838640000001034049131373084045_" gradientUnits="userSpaceOnUse" x1="1841.3207" y1="2233.6597" x2="1434.3495" y2="3372.3147">
					<stop  offset="0" style="stop-color:#FFC444"/>
					<stop  offset="0.3138" style="stop-color:#FBA94A"/>
					<stop  offset="0.9964" style="stop-color:#F36F56"/>
				</linearGradient>
				<path style="opacity:0.2;fill:url(#SVGID_00000127035895116499838640000001034049131373084045_);" d="M2514.006,2700.729
					c-18.238,11.272-39.506,18.129-62.521,19.175c-354.563,14.759-1174.104,99.595-1200.944-0.929
					c-30.915-116.213,89.135-643.007,85.299-708.899c-3.949-65.778-27.192-635.222-27.192-635.222l59.854,14.876
					c49.039,29.635,109.585,83.905,117.019,94.017c130.978,177.109-39.744,511.919,186.985,630.34
					c145.97,76.119,331.911,14.991,473.341,102.267c56.359,34.864,99.598,92.389,117.496,156.19
					c18.816,67.287-2.792,147.009,47.064,203.838C2358.287,2631.001,2440.442,2662.263,2514.006,2700.729z"/>
			</g>
		</g>
		<g>
			<g>
				<g>
					<g>
						<g>
							
								<linearGradient id="SVGID_00000106840638524989037260000001516058219569574546_" gradientUnits="userSpaceOnUse" x1="799.9482" y1="2306.4875" x2="1685.3784" y2="2306.4875" gradientTransform="matrix(0.9993 0.0372 -0.0372 0.9993 -147.3405 -31.9133)">
								<stop  offset="0" style="stop-color:#444B8C"/>
								<stop  offset="0.9964" style="stop-color:#26264F"/>
							</linearGradient>
							<path style="fill:url(#SVGID_00000106840638524989037260000001516058219569574546_);" d="M1310.969,1626.788
								l117.208,1315.213c1.775,19.913-12.055,37.621-30.765,39.346l-634.14,65.315c-37.94,2.019-58.016-18.558-59.72-39.243
								L591.059,1641.896c-1.66-20.16,17.181-39.161,54.665-40.541l628.323-9.235
								C1292.637,1591.764,1309.238,1607.362,1310.969,1626.788z"/>
							
								<linearGradient id="SVGID_00000061458095550569664270000003201597412366372749_" gradientUnits="userSpaceOnUse" x1="1183.724" y1="2518.71" x2="1306.0447" y2="2179.1653" gradientTransform="matrix(0.9993 0.0372 -0.0372 0.9993 -147.3405 -31.9133)">
								<stop  offset="0" style="stop-color:#444B8C"/>
								<stop  offset="0.9964" style="stop-color:#26264F"/>
							</linearGradient>
							<path style="fill:url(#SVGID_00000061458095550569664270000003201597412366372749_);" d="M1339.774,1623.524
								l118.269,1323.085c1.791,20.034-12.112,37.849-30.928,39.586l-657.999,60.725c-20.175,1.861-38.118-13.646-39.838-34.457
								L615.785,1638.696c-1.675-20.28,13.369-37.18,33.395-37.563l653.453-12.484
								C1321.329,1588.292,1338.027,1603.983,1339.774,1623.524z"/>
						</g>
						
							<linearGradient id="SVGID_00000131358440385309999690000013362669823917540272_" gradientUnits="userSpaceOnUse" x1="1212.0736" y1="1573.0056" x2="460.4099" y2="3608.761" gradientTransform="matrix(0.9993 0.0372 -0.0372 0.9993 -147.3405 -31.9133)">
							<stop  offset="0" style="stop-color:#FFC444"/>
							<stop  offset="0.9964" style="stop-color:#F36F56"/>
						</linearGradient>
						<path style="fill:url(#SVGID_00000131358440385309999690000013362669823917540272_);" d="M996.952,1634.71
							c0.594,6.897-4.356,12.608-11.06,12.754c-6.71,0.146-12.633-5.335-13.227-12.24c-0.594-6.905,4.367-12.614,11.076-12.752
							C990.445,1622.335,996.358,1627.813,996.952,1634.71z"/>
					</g>
					<g>
						<defs>
							<path id="SVGID_00000090271873162278844850000010273043282925168318_" d="M1286.925,1659.287l-609.543,13.443
								c-15.858,0.35-27.573,13.635-26.14,29.67l114.892,1285.396c1.415,15.828,15.267,27.418,30.914,25.892l601.566-58.672
								c14.582-1.422,25.322-14.934,24.01-30.184L1316.061,1686.66C1314.732,1671.217,1301.697,1658.961,1286.925,1659.287z"/>
						</defs>
						<clipPath id="SVGID_00000025408956745398754640000006396527262770571703_">
							<use xlink:href="#SVGID_00000090271873162278844850000010273043282925168318_"  style="overflow:visible;"/>
						</clipPath>
						<polygon style="clip-path:url(#SVGID_00000025408956745398754640000006396527262770571703_);fill:#FFFFFF;" points="
							1347.958,2057.273 685.638,2087.212 668.299,1893.229 1331.878,1870.442 						"/>
						<g style="clip-path:url(#SVGID_00000025408956745398754640000006396527262770571703_);">
							<polygon style="fill:#D8DEE8;" points="1425.468,2957.882 769.201,3022.098 676.706,1987.276 1339.673,1961.02 							"/>
							
								<linearGradient id="SVGID_00000054259240894777215410000012910769709615802509_" gradientUnits="userSpaceOnUse" x1="621.8901" y1="1336.6661" x2="1216.1906" y2="2395.3032" gradientTransform="matrix(1 0 0.0902 0.9985 -49.2091 1.1571)">
								<stop  offset="0" style="stop-color:#FF9085"/>
								<stop  offset="1" style="stop-color:#FB6FBB"/>
							</linearGradient>
							<polygon style="fill:url(#SVGID_00000054259240894777215410000012910769709615802509_);" points="1337.104,1931.17 
								673.935,1956.283 646.272,1646.789 1311.451,1633.105 							"/>
							<g>
								<polygon style="fill:#FFFFFF;" points="1258.292,1787.992 1019.2,1795.031 1017.074,1770.761 1256.223,1764.052 								"/>
								<polygon style="fill:#FFFFFF;" points="1262.245,1833.747 1023.262,1841.415 1021.138,1817.157 1260.177,1809.818 								
									"/>
							</g>
							<g>
								<defs>
									<polygon id="SVGID_00000173842218183961763380000013519916487585656726_" points="1425.468,2957.882 769.201,3022.098 
										676.706,1987.276 1339.673,1961.02 									"/>
								</defs>
								<clipPath id="SVGID_00000082345995361229065220000012836876748534669702_">
									<use xlink:href="#SVGID_00000173842218183961763380000013519916487585656726_"  style="overflow:visible;"/>
								</clipPath>
								<g style="clip-path:url(#SVGID_00000082345995361229065220000012836876748534669702_);">
									<path style="fill:#FFFFFF;" d="M1463.837,3027.354c-9.438,0-18.699-4.572-24.322-13.018l-289.159-434.46L871.8,2600.203
										l-175.457,362.335c-7.024,14.507-24.487,20.574-38.985,13.548c-14.508-7.026-20.574-24.48-13.549-38.986l182.799-377.497
										c4.543-9.382,13.747-15.628,24.145-16.387l312.341-22.792c10.491-0.751,20.587,4.178,26.418,12.937l298.594,448.637
										c8.929,13.417,5.291,31.534-8.124,40.465C1475.009,3025.77,1469.393,3027.354,1463.837,3027.354z"/>
									<path style="fill:#FFFFFF;" d="M1063.059,3059.546c-14.964,0-27.702-11.442-29.04-26.631l-40.836-464.536l-329.521-628.244
										c-7.487-14.273-1.985-31.913,12.289-39.4c14.267-7.486,31.913-1.987,39.401,12.288l332.237,633.421
										c1.794,3.417,2.89,7.157,3.229,11.001l41.349,470.361c1.412,16.055-10.461,30.215-26.519,31.626
										C1064.779,3059.509,1063.914,3059.546,1063.059,3059.546z"/>
									<path style="fill:#FFFFFF;" d="M1043.538,2828.781c-10.568,0-19.565-8.087-20.5-18.813
										c-0.989-11.333,7.4-21.323,18.733-22.312l200.577-17.489l-70.59-813.282c-0.982-11.335,7.407-21.322,18.743-22.306
										c11.276-0.981,21.318,7.407,22.304,18.741l72.37,833.798c0.982,11.333-7.403,21.316-18.733,22.306l-221.09,19.278
										C1044.742,2828.754,1044.138,2828.781,1043.538,2828.781z"/>
									<path style="fill:#FFFFFF;" d="M1404.648,2618.44c-3.078,0-6.156-1.175-8.503-3.526l-368.711-369.271
										c-19.062,6.188-74.01,23.947-128.777,40.96c-39.659,12.321-71.488,21.851-94.604,28.329
										c-14.176,3.972-24.584,6.768-32.369,8.49c14.304,39.856,60.4,161.077,92.414,244.599
										c2.374,6.196-0.724,13.145-6.921,15.521c-6.206,2.379-13.15-0.726-15.524-6.92c-0.245-0.645-25.043-65.352-49.305-129.343
										c-14.257-37.6-25.539-67.604-33.543-89.18c-4.54-12.247-8.282-22.473-10.833-29.668
										c-4.637-13.086-7.437-20.984,1.992-26.029c2.733-1.458,5.834-1.73,8.684-0.989c21.975-2.325,174.954-50.425,268.353-80.898
										c4.305-1.403,9.03-0.271,12.232,2.932l373.918,374.486c4.691,4.698,4.684,12.305-0.013,16.994
										C1410.794,2617.268,1407.719,2618.44,1404.648,2618.44z M765.562,2306.146c0.003,0.005,0.007,0.008,0.01,0.013
										C765.568,2306.155,765.565,2306.151,765.562,2306.146z M765.545,2306.123c0.007,0.007,0.01,0.012,0.013,0.017
										C765.555,2306.135,765.552,2306.129,765.545,2306.123z M765.247,2305.724c0.101,0.131,0.201,0.263,0.298,0.397
										C765.448,2305.985,765.347,2305.853,765.247,2305.724z M765.24,2305.714c0.003,0.003,0.003,0.007,0.007,0.01
										C765.243,2305.72,765.243,2305.717,765.24,2305.714z M765.226,2305.698v0.002V2305.698z"/>
									<path style="fill:#FFFFFF;" d="M1030.717,2243.954c-6.163,0-11.41-4.713-11.957-10.968l-29.711-338.69
										c-0.58-6.61,4.309-12.441,10.921-13.021c6.572-0.563,12.44,4.31,13.019,10.922l29.711,338.69
										c0.58,6.61-4.309,12.441-10.921,13.021C1031.424,2243.939,1031.068,2243.954,1030.717,2243.954z"/>
								</g>
								
									<linearGradient id="SVGID_00000058562475756316354080000016413440009128442035_" gradientUnits="userSpaceOnUse" x1="651.9717" y1="1817.1295" x2="1123.3695" y2="3031.3342" gradientTransform="matrix(1 0 0.0902 0.9985 -49.2091 1.1571)">
									<stop  offset="0" style="stop-color:#AA80F9"/>
									<stop  offset="0.9964" style="stop-color:#6165D7"/>
								</linearGradient>
								
									<path style="clip-path:url(#SVGID_00000082345995361229065220000012836876748534669702_);fill:url(#SVGID_00000058562475756316354080000016413440009128442035_);" d="
									M1450.999,2985.738c-2.77,0-5.489-1.34-7.142-3.816l-8.765-13.115c-2.635-3.941-1.576-9.273,2.367-11.906
									c3.943-2.632,9.271-1.574,11.903,2.367l8.765,13.115c2.635,3.941,1.576,9.272-2.367,11.906
									C1454.295,2985.268,1452.639,2985.738,1450.999,2985.738z M1411.709,2926.947c-2.77,0-5.489-1.34-7.145-3.816
									l-30.519-45.674c-2.635-3.941-1.576-9.272,2.367-11.906c3.943-2.632,9.271-1.574,11.903,2.367l30.522,45.674
									c2.635,3.941,1.576,9.272-2.367,11.906C1415.005,2926.478,1413.349,2926.947,1411.709,2926.947z M1350.662,2835.599
									c-2.769,0-5.489-1.34-7.142-3.816l-30.522-45.674c-2.635-3.941-1.576-9.273,2.367-11.906
									c3.943-2.632,9.271-1.574,11.903,2.367l30.522,45.674c2.635,3.941,1.576,9.272-2.367,11.906
									C1353.958,2835.13,1352.301,2835.599,1350.662,2835.599z M1289.615,2744.251c-2.77,0-5.489-1.34-7.145-3.816l-30.522-45.676
									c-2.632-3.941-1.573-9.273,2.37-11.906c3.943-2.632,9.271-1.574,11.906,2.367l30.522,45.676
									c2.632,3.941,1.572,9.272-2.371,11.906C1292.911,2743.782,1291.254,2744.251,1289.615,2744.251z M1228.567,2652.902
									c-2.77,0-5.489-1.34-7.142-3.816l-30.522-45.674c-2.635-3.941-1.576-9.272,2.367-11.906
									c3.943-2.632,9.271-1.574,11.903,2.367l30.522,45.674c2.635,3.941,1.576,9.272-2.367,11.906
									C1231.863,2652.432,1230.207,2652.902,1228.567,2652.902z M1016.755,2568.971l-10.421-19.875
									c-2.203-4.198-0.583-9.387,3.615-11.588c4.188-2.201,9.385-0.585,11.588,3.615l5.197,9.906l32.406-2.364
									c4.701-0.355,8.838,3.205,9.184,7.935c0.345,4.729-3.209,8.842-7.937,9.185L1016.755,2568.971z M1114.54,2561.811
									c-4.456,0-8.221-3.444-8.55-7.958c-0.345-4.729,3.209-8.842,7.937-9.186l55.652-4.06l5.073,7.594
									c2.632,3.943,1.573,9.273-2.371,11.906c-3.692,2.461-8.607,1.693-11.373-1.656l-45.734,3.336
									C1114.963,2561.804,1114.751,2561.811,1114.54,2561.811z M988.422,2505.045c-3.088,0-6.072-1.673-7.608-4.599
									l-25.516-48.648c-2.203-4.198-0.583-9.386,3.615-11.588c4.188-2.2,9.382-0.585,11.588,3.615l25.516,48.648
									c2.203,4.198,0.583,9.386-3.615,11.588C991.131,2504.728,989.767,2505.045,988.422,2505.045z M937.39,2407.747
									c-3.088,0-6.072-1.671-7.608-4.599l-25.519-48.648c-2.203-4.198-0.583-9.385,3.615-11.588
									c4.188-2.201,9.381-0.588,11.588,3.615l25.519,48.648c2.203,4.198,0.583,9.385-3.615,11.588
									C940.1,2407.43,938.735,2407.747,937.39,2407.747z M886.355,2310.45c-3.088,0-6.072-1.673-7.608-4.598l-25.516-48.648
									c-2.203-4.198-0.583-9.386,3.615-11.588c4.184-2.199,9.382-0.585,11.588,3.615l25.516,48.648
									c2.203,4.198,0.583,9.386-3.615,11.588C889.064,2310.133,887.7,2310.45,886.355,2310.45z M835.32,2213.152
									c-3.088,0-6.072-1.673-7.608-4.599l-25.516-48.648c-2.203-4.198-0.583-9.386,3.615-11.588
									c4.184-2.201,9.381-0.585,11.588,3.615l25.516,48.648c2.203,4.198,0.583,9.387-3.615,11.588
									C838.029,2212.835,836.664,2213.152,835.32,2213.152z M784.288,2115.854c-3.088,0-6.072-1.671-7.608-4.599l-25.519-48.648
									c-2.203-4.198-0.583-9.385,3.615-11.588c4.188-2.2,9.381-0.589,11.588,3.614l25.519,48.648
									c2.203,4.198,0.583,9.385-3.615,11.588C786.997,2115.538,785.633,2115.854,784.288,2115.854z M733.253,2018.557
									c-3.088,0-6.072-1.673-7.608-4.599l-13.579-25.888l-2.977-28.85c-0.49-4.716,2.94-8.932,7.655-9.42
									c4.671-0.479,8.932,2.939,9.418,7.656l2.642,25.565l12.044,22.964c2.203,4.198,0.583,9.387-3.615,11.588
									C735.962,2018.24,734.597,2018.557,733.253,2018.557z M711.968,1912.278c-4.346,0-8.071-3.286-8.527-7.702l-5.643-54.645
									c-0.49-4.716,2.94-8.932,7.655-9.42c4.677-0.481,8.929,2.94,9.418,7.656l5.643,54.645c0.49,4.716-2.94,8.932-7.655,9.42
									C712.562,1912.263,712.263,1912.278,711.968,1912.278z"/>
							</g>
						</g>
					</g>
					
						<linearGradient id="SVGID_00000148625863158332530300000013962948025989168830_" gradientUnits="userSpaceOnUse" x1="755.2077" y1="2519.7627" x2="-170.8895" y2="4163.2598">
						<stop  offset="0" style="stop-color:#FFC444"/>
						<stop  offset="0.3138" style="stop-color:#FBA94A"/>
						<stop  offset="0.9964" style="stop-color:#F36F56"/>
					</linearGradient>
					
						<circle style="fill:url(#SVGID_00000148625863158332530300000013962948025989168830_);" cx="884.052" cy="2291.109" r="45.442"/>
				</g>
				<g style="opacity:0.48;">
					<path style="fill:#FFFFFF;" d="M1181.673,2531.797c-63.79-222.871-249.775-200.585-305.396-401.974
						c-45.681-165.4,59.65-252.592-4.243-391.067c-30.051-65.127-82.695-109.163-137.287-139.257l-85.568,1.635
						c-20.027,0.383-35.07,17.283-33.396,37.563l113.491,1373.768c1.72,20.811,19.665,36.318,39.839,34.457l539.5-49.79
						c-34.496-43.762-67.229-97.32-89.946-161.65C1170.583,2699.311,1216.948,2655.044,1181.673,2531.797z"/>
				</g>
			</g>
			<g>
				<g style="opacity:0.3;">
					
						<linearGradient id="SVGID_00000007400964902824226630000004465381485980479374_" gradientUnits="userSpaceOnUse" x1="719.7902" y1="1802.2614" x2="984.2765" y2="1802.2614">
						<stop  offset="0" style="stop-color:#FFC444"/>
						<stop  offset="0.9964" style="stop-color:#F36F56"/>
					</linearGradient>
					<path style="fill:url(#SVGID_00000007400964902824226630000004465381485980479374_);" d="M978.237,1815.612l-247.811,1.954
						c-4.17,0.033-7.96-3.083-8.458-6.965l-2.124-16.571c-0.501-3.905,2.5-7.074,6.693-7.074l249.125,0.006
						c3.664,0,6.891,2.954,7.214,6.595l1.373,15.451C984.572,1812.628,981.883,1815.583,978.237,1815.612z"/>
					
						<linearGradient id="SVGID_00000011744273860414223120000006499472404891542427_" gradientUnits="userSpaceOnUse" x1="741.1058" y1="1866.6589" x2="970.0477" y2="1866.6589">
						<stop  offset="0" style="stop-color:#FFC444"/>
						<stop  offset="0.9964" style="stop-color:#F36F56"/>
					</linearGradient>
					<path style="fill:url(#SVGID_00000011744273860414223120000006499472404891542427_);" d="M741.106,1823.668l31.651,79.996
						c1.969,4.977,7.252,8.334,12.806,8.152l162.17-5.305c5.077-0.166,9.175-3.661,9.955-8.483l12.36-76.533L741.106,1823.668z
						 M812.222,1898.222c0.364,3.132-2.052,5.753-5.4,5.856l-5.789,0.179c-3.364,0.104-6.399-2.36-6.773-5.507l-7.362-61.921
						c-0.382-3.209,2.078-5.845,5.487-5.884l5.867-0.068c3.392-0.039,6.44,2.521,6.811,5.715L812.222,1898.222z M844.242,1897.282
						c0.346,3.106-2.039,5.704-5.331,5.805l-5.691,0.176c-3.307,0.102-6.281-2.343-6.637-5.463l-6.998-61.399
						c-0.363-3.182,2.065-5.795,5.416-5.833l5.766-0.066c3.335-0.039,6.321,2.5,6.673,5.667L844.242,1897.282z M875.724,1896.358
						c0.328,3.08-2.027,5.656-5.263,5.756l-5.596,0.173c-3.252,0.1-6.166-2.325-6.504-5.419l-6.645-60.886
						c-0.344-3.155,2.052-5.746,5.346-5.784l5.669-0.065c3.278-0.038,6.204,2.479,6.539,5.62L875.724,1896.358z M906.683,1895.449
						c0.311,3.055-2.014,5.609-5.197,5.708l-5.503,0.17c-3.198,0.099-6.054-2.307-6.375-5.376l-6.303-60.381
						c-0.326-3.129,2.039-5.697,5.278-5.734l5.574-0.064c3.224-0.037,6.091,2.459,6.408,5.573L906.683,1895.449z M937.131,1894.555
						c0.294,3.03-2.002,5.563-5.132,5.66l-5.413,0.167c-3.145,0.097-5.945-2.29-6.249-5.334l-5.971-59.884
						c-0.309-3.103,2.027-5.65,5.212-5.686l5.481-0.063c3.17-0.037,5.98,2.44,6.28,5.528L937.131,1894.555z"/>
					<g>
						<g>
							
								<linearGradient id="SVGID_00000011715604106563414380000003590245675429100188_" gradientUnits="userSpaceOnUse" x1="747.8429" y1="1771.953" x2="766.6456" y2="1771.953">
								<stop  offset="0" style="stop-color:#FFC444"/>
								<stop  offset="0.9964" style="stop-color:#F36F56"/>
							</linearGradient>
							<path style="fill:url(#SVGID_00000011715604106563414380000003590245675429100188_);" d="M764.197,1778.6
								c-3.488,3.172-9.426,2.783-13.27-0.881c-3.854-3.675-4.136-9.243-0.622-12.424c3.51-3.178,9.464-2.757,13.293,0.927
								C767.416,1769.895,767.681,1775.432,764.197,1778.6z"/>
							
								<linearGradient id="SVGID_00000093877919230519337610000002098693127174523796_" gradientUnits="userSpaceOnUse" x1="756.3145" y1="1735.9484" x2="837.5058" y2="1735.9484">
								<stop  offset="0" style="stop-color:#FFC444"/>
								<stop  offset="0.9964" style="stop-color:#F36F56"/>
							</linearGradient>
							<path style="fill:url(#SVGID_00000093877919230519337610000002098693127174523796_);" d="M836.604,1699.978
								c-1.424-1.445-4.029-1.303-5.818,0.318l-72.894,66.086c-1.83,1.659-2.109,4.16-0.624,5.583
								c1.484,1.421,4.166,1.228,5.991-0.429l72.69-66.013C837.734,1703.902,838.027,1701.421,836.604,1699.978z"/>
						</g>
						<g>
							
								<linearGradient id="SVGID_00000145050382893261588330000000516476550454333622_" gradientUnits="userSpaceOnUse" x1="936.8349" y1="1772.6925" x2="953.8049" y2="1772.6925">
								<stop  offset="0" style="stop-color:#FFC444"/>
								<stop  offset="0.9964" style="stop-color:#F36F56"/>
							</linearGradient>
							<path style="fill:url(#SVGID_00000145050382893261588330000000516476550454333622_);" d="M940.382,1778.988
								c3.807,3.036,9.099,2.682,11.828-0.781c2.727-3.461,1.874-8.731-1.915-11.782c-3.799-3.059-9.111-2.73-11.857,0.745
								C935.69,1770.649,936.564,1775.944,940.382,1778.988z"/>
							
								<linearGradient id="SVGID_00000024721639932876880730000008803590572806051492_" gradientUnits="userSpaceOnUse" x1="854.6293" y1="1736.5569" x2="945.821" y2="1736.5569">
								<stop  offset="0" style="stop-color:#FFC444"/>
								<stop  offset="0.9964" style="stop-color:#F36F56"/>
							</linearGradient>
							<path style="fill:url(#SVGID_00000024721639932876880730000008803590572806051492_);" d="M855.121,1700.406
								c1.106-1.378,3.722-1.116,5.84,0.584l82.697,66.391c1.99,1.598,2.742,3.979,1.683,5.322c-1.06,1.343-3.533,1.141-5.527-0.454
								l-82.854-66.272C854.839,1704.28,854.014,1701.785,855.121,1700.406z"/>
						</g>
					</g>
				</g>
				<g>
					<path style="fill:#FFFFFF;" d="M981.565,1812.284l-247.811,1.955c-4.17,0.033-7.96-3.084-8.458-6.965l-2.124-16.571
						c-0.5-3.905,2.5-7.074,6.693-7.074l249.125,0.006c3.664,0,6.891,2.954,7.214,6.595l1.373,15.451
						C987.9,1809.3,985.211,1812.255,981.565,1812.284z"/>
					<path style="fill:#FFFFFF;" d="M744.434,1820.34l31.65,79.996c1.969,4.977,7.252,8.334,12.806,8.152l162.17-5.305
						c5.077-0.166,9.175-3.661,9.955-8.483l12.36-76.533L744.434,1820.34z M815.55,1894.894c0.364,3.132-2.052,5.752-5.4,5.856
						l-5.789,0.179c-3.364,0.104-6.399-2.361-6.773-5.507l-7.362-61.921c-0.382-3.209,2.078-5.845,5.487-5.884l5.867-0.068
						c3.392-0.039,6.44,2.521,6.811,5.715L815.55,1894.894z M847.57,1893.954c0.346,3.106-2.039,5.704-5.331,5.806l-5.691,0.176
						c-3.307,0.102-6.281-2.343-6.637-5.463l-6.998-61.399c-0.363-3.182,2.065-5.795,5.416-5.833l5.767-0.067
						c3.335-0.038,6.321,2.5,6.673,5.667L847.57,1893.954z M879.052,1893.03c0.328,3.08-2.027,5.656-5.263,5.756l-5.596,0.173
						c-3.252,0.1-6.166-2.325-6.504-5.419l-6.645-60.886c-0.344-3.155,2.052-5.745,5.346-5.783l5.669-0.065
						c3.278-0.038,6.204,2.479,6.539,5.62L879.052,1893.03z M910.011,1892.121c0.311,3.055-2.014,5.609-5.197,5.708l-5.503,0.17
						c-3.198,0.099-6.054-2.307-6.375-5.376l-6.302-60.381c-0.327-3.129,2.039-5.697,5.278-5.734l5.574-0.064
						c3.223-0.037,6.091,2.459,6.408,5.573L910.011,1892.121z M940.459,1891.227c0.294,3.03-2.002,5.563-5.132,5.66l-5.413,0.167
						c-3.145,0.097-5.945-2.29-6.249-5.334l-5.971-59.884c-0.309-3.102,2.027-5.65,5.212-5.686l5.481-0.063
						c3.17-0.036,5.98,2.44,6.28,5.528L940.459,1891.227z"/>
					<g>
						<g>
							<path style="fill:#FFFFFF;" d="M767.525,1775.272c-3.488,3.172-9.426,2.783-13.27-0.881
								c-3.854-3.675-4.136-9.243-0.622-12.424c3.51-3.178,9.464-2.757,13.293,0.927
								C770.744,1766.567,771.01,1772.103,767.525,1775.272z"/>
							<path style="fill:#FFFFFF;" d="M839.932,1696.65c-1.424-1.445-4.029-1.304-5.818,0.318l-72.894,66.086
								c-1.83,1.659-2.109,4.16-0.624,5.583c1.484,1.421,4.166,1.228,5.991-0.429l72.69-66.013
								C841.062,1700.574,841.355,1698.093,839.932,1696.65z"/>
						</g>
						<g>
							<path style="fill:#FFFFFF;" d="M943.71,1775.66c3.807,3.036,9.099,2.682,11.828-0.781c2.727-3.461,1.874-8.731-1.915-11.782
								c-3.799-3.059-9.112-2.729-11.857,0.746C939.018,1767.32,939.892,1772.616,943.71,1775.66z"/>
							<path style="fill:#FFFFFF;" d="M858.449,1697.078c1.107-1.378,3.722-1.116,5.84,0.584l82.697,66.391
								c1.99,1.598,2.742,3.979,1.683,5.322c-1.06,1.343-3.533,1.141-5.527-0.454l-82.854-66.272
								C858.167,1700.952,857.343,1698.457,858.449,1697.078z"/>
						</g>
					</g>
				</g>
			</g>
		</g>
		<g>
			
				<linearGradient id="SVGID_00000172425047231037610490000005159998766299159229_" gradientUnits="userSpaceOnUse" x1="2252.251" y1="1692.6678" x2="2274.0686" y2="3705.2366">
				<stop  offset="0" style="stop-color:#AA80F9"/>
				<stop  offset="0.9964" style="stop-color:#6165D7"/>
			</linearGradient>
			<path style="fill:url(#SVGID_00000172425047231037610490000005159998766299159229_);" d="M2207.654,3166.248
				c494.735,3.813,870.55-0.404,894.164-211.168c13.623-121.585-128.956-433.711-215.246-533.191
				c-136.409-157.26-355.391-164.983-654.979-173.331c-281.726-7.851-455.337-12.689-592.422,108.73
				c-128.155,113.509-266.912,554.727-187.102,663.781C1526.13,3122.27,1735.301,3162.607,2207.654,3166.248z"/>
			
				<linearGradient id="SVGID_00000165938269896918986500000009674444375673813126_" gradientUnits="userSpaceOnUse" x1="1562.5481" y1="2769.2229" x2="2913.1069" y2="2769.2229">
				<stop  offset="0" style="stop-color:#AA80F9"/>
				<stop  offset="0.9964" style="stop-color:#6165D7"/>
			</linearGradient>
			<path style="opacity:0.3;fill:url(#SVGID_00000165938269896918986500000009674444375673813126_);" d="M1693.822,2881.583
				c0,0-59.205-28.388-109.58,0c-50.375,28.388-5.066-131.608,54.79-149.789c59.856-18.181,129.339-59.998,245.722-56.362
				c116.383,3.636,811.209-39.02,891.114-14.056s165.021,126.78,128.543,175.869c-36.479,49.09-118.121-15.334-145.914-17.667
				S1693.822,2881.583,1693.822,2881.583z"/>
			
				<linearGradient id="SVGID_00000085223363249736868250000013691693277211114385_" gradientUnits="userSpaceOnUse" x1="3869.6272" y1="2825.8586" x2="3883.8428" y2="2049.7131" gradientTransform="matrix(-1 0 0 1 6124.7397 0)">
				<stop  offset="0" style="stop-color:#444B8C"/>
				<stop  offset="0.9964" style="stop-color:#26264F"/>
			</linearGradient>
			<path style="fill:url(#SVGID_00000085223363249736868250000013691693277211114385_);" d="M2396.908,2248.062l57.914,14.832
				c14.196,3.635,20.675,20.086,12.764,32.42c-39.438,61.484-143.888,215.878-209.296,234.041
				c-67.619,18.776-193.945-176.86-235.974-245.71c-7.262-11.896-1.447-27.44,11.834-31.667l42.485-13.525
				c34.757-11.064,71.338-15.24,107.694-12.294l158.357,12.832C2360.985,2240.473,2379.124,2243.508,2396.908,2248.062z"/>
			<g>
				
					<linearGradient id="SVGID_00000055670939219723366290000017993324397810055320_" gradientUnits="userSpaceOnUse" x1="3884.5215" y1="2494.8472" x2="4503.2363" y2="4014.1372" gradientTransform="matrix(-1 0 0 1 6124.7397 0)">
					<stop  offset="0" style="stop-color:#FFC444"/>
					<stop  offset="0.3138" style="stop-color:#FBA94A"/>
					<stop  offset="0.9964" style="stop-color:#F36F56"/>
				</linearGradient>
				<polygon style="fill:url(#SVGID_00000055670939219723366290000017993324397810055320_);" points="1682.991,3203.833 
					2510.448,3243.847 2510.448,2410.573 1682.991,2450.588 				"/>
				
					<linearGradient id="SVGID_00000117665772104734043560000010116872664209258158_" gradientUnits="userSpaceOnUse" x1="3115.4619" y1="3071.1873" x2="3658.5566" y2="2734.3308" gradientTransform="matrix(-1 0 0 1 6124.7397 0)">
					<stop  offset="0" style="stop-color:#FFC444"/>
					<stop  offset="0.3138" style="stop-color:#FBA94A"/>
					<stop  offset="0.9964" style="stop-color:#F36F56"/>
				</linearGradient>
				<polygon style="fill:url(#SVGID_00000117665772104734043560000010116872664209258158_);" points="2510.448,3243.847 
					2807.17,3186.823 2807.17,2463.769 2510.448,2410.573 				"/>
				<polygon style="fill:#FFFFFF;" points="2245.203,2424.739 2245.203,2555.016 2023.695,2564.695 2023.695,2438.146 				"/>
				<polygon style="fill:#FFFFFF;" points="2743.681,2452.387 2619.395,2430.105 2619.395,2558.41 2743.681,2571.895 				"/>
			</g>
			<path style="fill:#FFFFFF;" d="M2825.318,2869.873c0,0,0.949-135.75-40.092-173.633c-41.04-37.884-90.071-31.57-101.861-34.727
				c-11.79-3.157,37.008,48.933,45.036,115.229C2736.429,2843.039,2783.328,2857.245,2825.318,2869.873z"/>
			<path style="fill:#FFFFFF;" d="M1664.886,2933.633c0,0,42.893-85.815,108.883-106.423c65.99-20.608,39.594,1.649,0,53.211
				c-39.594,51.562-39.594,127.45-75.888,137.349C1661.587,3027.669,1646.782,2986.425,1664.886,2933.633z"/>
			<g>
				<path style="fill:#FFFFFF;" d="M2352.978,2281.153l-118.796,129.414l-120.323-153.304c0,0,20.401-15.381,30.29-79.525
					c3.345-21.745,5.49-48.94,5.199-83.193c-0.11-15.563-0.728-33.7-1.964-50.867h194.032c0,0-0.799,5.668-1.964,15.45
					c-0.035,0.182-0.035,0.58-0.075,0.761c-1.015,8.618-2.29,19.962-3.562,33.343c0,0.109-0.036,0.272-0.036,0.382
					C2329.634,2159.066,2324.144,2266.826,2352.978,2281.153z"/>
				
					<linearGradient id="SVGID_00000101815589806657143550000006993207166811643026_" gradientUnits="userSpaceOnUse" x1="2143.7153" y1="2122.405" x2="2339.4524" y2="2122.405">
					<stop  offset="0" style="stop-color:#AA80F9"/>
					<stop  offset="0.9964" style="stop-color:#6165D7"/>
				</linearGradient>
				<path style="opacity:0.2;fill:url(#SVGID_00000101815589806657143550000006993207166811643026_);" d="M2339.452,2059.559
					c-0.035,0.181-0.035,0.364-0.075,0.545c-1.015,8.617-2.29,19.854-3.562,33.235c-0.036,0-0.036,0.036-0.036,0.036
					c-4.037,5.345-10.145,10.364-18.728,14.8c-52.726,27.272-54.759,53.635-86.615,82.725
					c-31.853,29.09-86.722-13.091-86.722-13.091v-0.072c3.433-21.745,5.708-49.558,5.417-83.812
					c18-13.381,46.396-33.082,73.558-50.249h108.108c3.597,3.433,6.58,10.213,8.618,15.377
					C2339.417,2059.091,2339.452,2059.523,2339.452,2059.559z"/>
			</g>
			<g>
				
					<linearGradient id="SVGID_00000176723182193176495740000016055165474665814693_" gradientUnits="userSpaceOnUse" x1="-575.3033" y1="3317.4224" x2="-812.3933" y2="2715.2571" gradientTransform="matrix(0.9989 0.0475 -0.0475 0.9989 3133.8008 -907.3022)">
					<stop  offset="0" style="stop-color:#444B8C"/>
					<stop  offset="0.9964" style="stop-color:#3E4177"/>
				</linearGradient>
				<path style="fill:url(#SVGID_00000176723182193176495740000016055165474665814693_);" d="M2068.279,1903.83
					c-69.593-66.893,25.565-71.52,78.173-112.615c15.039-11.745-1.212-99.391,99.885-53.938
					c104.321,46.903,102.571,7.66,119.766,54.544c10.502,28.617,61.372,78.972,49.773,109.436
					c-5.975,15.675-17.61,35.191-43.484,72.436c-22.966,33.05-21.418,31.931-28.458,41.538
					c-16.912,23.073-49.534,61.924-109.307,106.958c-3.326-16.85-8.577-37.757-17.381-60.559
					c-3.386-8.774-17.041-43.067-38.693-71.955C2141.291,1939.953,2095.523,1930.017,2068.279,1903.83z"/>
				<path style="fill:#FFFFFF;" d="M2311.038,2077.931c0,0-61.976,92.324-176.769,79.798
					c-102.781-11.222-107.765-243.026-39.78-289.201c22.677-15.407,66.964-20.268,102.297-8.683
					c20.871,6.844,27.63,15.944,61.946,26.457c31.648,9.705,40.851,6.547,50.157,15.111c11.643,10.7,19.403,36.026-3.74,102.723
					c20.538-19.057,44.481-25.662,60.856-17.037c2.61,1.376,9.481,6.501,13.139,13.972
					C2392.399,2028.107,2366.821,2060.767,2311.038,2077.931z"/>
			</g>
			<g>
				
					<linearGradient id="SVGID_00000057849567923562278480000012485851332660563605_" gradientUnits="userSpaceOnUse" x1="3999.5637" y1="1343.2982" x2="3874.6665" y2="1861.0997" gradientTransform="matrix(-1 0 0 1 6124.7397 0)">
					<stop  offset="0" style="stop-color:#AA80F9"/>
					<stop  offset="0.9964" style="stop-color:#6165D7"/>
				</linearGradient>
				<path style="fill:url(#SVGID_00000057849567923562278480000012485851332660563605_);" d="M2419.97,1899.472
					c0,0-5.356,50.032-30.323,36.442c-91.998-50.075-276.394-104.95-329.956-51.468c0,0-25.95-231.148,200.975-214.925
					c93.959,6.717,139.936,53.883,162.093,103.692C2449.789,1833.974,2419.97,1899.472,2419.97,1899.472z"/>
				
					<linearGradient id="SVGID_00000162310952718518309690000004995338295336693651_" gradientUnits="userSpaceOnUse" x1="2427.1389" y1="1858.6011" x2="2772.5872" y2="1858.6011">
					<stop  offset="0" style="stop-color:#AA80F9"/>
					<stop  offset="0.4774" style="stop-color:#A87FF8"/>
					<stop  offset="0.6493" style="stop-color:#A17DF5"/>
					<stop  offset="0.7719" style="stop-color:#9678EF"/>
					<stop  offset="0.871" style="stop-color:#8572E8"/>
					<stop  offset="0.9548" style="stop-color:#6F6ADD"/>
					<stop  offset="0.9964" style="stop-color:#6165D7"/>
				</linearGradient>
				<path style="fill:url(#SVGID_00000162310952718518309690000004995338295336693651_);" d="M2341.439,1911.159
					c5.745,1.595-80.869-66.486-80.869-66.486s-83.803-59.906-236.861-30.568c-76.378,14.64,30.903,74.776,30.903,74.776
					S2084.921,1839.932,2341.439,1911.159z"/>
			</g>
		</g>
	</g>
</g>
</svg>
